<svg width="130" height="130" viewBox="0 0 130 130" fill="none" xmlns="http://www.w3.org/2000/svg">
<path fill-rule="evenodd" clip-rule="evenodd" d="M65 130C100.899 130 130 100.899 130 65C130 29.1015 100.899 0 65 0C29.1015 0 0 29.1015 0 65C0 100.899 29.1015 130 65 130ZM65 58C72.1797 58 78 52.1797 78 45C78 37.8203 72.1797 32 65 32C57.8203 32 52 37.8203 52 45C52 52.1797 57.8203 58 65 58ZM24.4975 62.6419C13.7861 47.6345 29.9442 34.8719 42.4975 44.1419C46.5772 48.6237 47.2446 52.6496 47.8753 56.4535C48.4731 60.0592 49.0378 63.4656 52.4442 66.8719C55.8786 70.3063 60.5166 71.6947 65 71.5683C69.4834 71.6947 74.1214 70.3066 77.5558 66.8722C80.9622 63.4658 81.5269 60.0594 82.1247 56.4537C82.7554 52.6497 83.4228 48.6238 87.5025 44.1419C100.056 34.8719 116.214 47.6345 105.502 62.6421C103.142 65.9496 98.2554 67.1139 93.4953 68.2481C89.289 69.2503 85.1814 70.229 83.0025 72.6422C79.7651 75.8775 79.0714 80.3232 78.3487 84.9547C78.0016 87.1789 77.6479 89.446 77.0025 91.6424C75.2006 97.7749 70.1042 100.701 65 100.421C59.8958 100.701 54.7994 97.7744 52.9975 91.6419C52.3521 89.4455 51.9984 87.1785 51.6513 84.9543C50.9286 80.3228 50.2349 75.8772 46.9975 72.6419C44.8186 70.2288 40.711 69.25 36.5047 68.2478C31.7446 67.1136 26.8582 65.9493 24.4975 62.6419Z" fill="#3D4785"/>
</svg>
